<?xml version="1.0" encoding="utf-8"?>
<!-- Generator: Adobe Illustrator 28.3.0, SVG Export Plug-In . SVG Version: 6.00 Build 0)  -->
<svg version="1.1" id="Layer_2" xmlns="http://www.w3.org/2000/svg" xmlns:xlink="http://www.w3.org/1999/xlink" x="0px" y="0px"
	 width="48px" height="48px" viewBox="0 0 48 48" enable-background="new 0 0 48 48" xml:space="preserve">
<path d="M14.9,22c0,2.8,2.3,5,5,5s5-2.3,5-5s-2.3-5-5-5S14.9,19.2,14.9,22z M23,22c0,1.7-1.4,3-3,3s-3-1.4-3-3s1.4-3,3-3
	S23,20.3,23,22z"/>
<path d="M41,36.1V22c0-0.6-0.4-1-1-1s-1,0.4-1,1v14H29v-3.6c0-2.5-2-4.5-4.5-4.5h-9.2c-2.5,0-4.4,2-4.4,4.5V36H9V17c0-1.1,0.9-2,2-2
	h11.2c0.6,0,1-0.4,1-1s-0.4-1-1-1H11c-2.2,0-4,1.8-4,4v19.1c-0.7,0.2-1.2,0.6-1.7,1.1C4.8,38,4.6,39,4.9,39.9l0.7,2
	C6,43.2,7.1,44,8.4,44h31.1c1.3,0,2.4-0.8,2.8-2.1l0.7-2c0.3-0.9,0.2-1.9-0.4-2.7C42.2,36.7,41.7,36.3,41,36.1z M12.9,32.4
	c0-1.4,1.1-2.5,2.4-2.5h9.2c1.4,0,2.5,1.1,2.5,2.5V36h-1.5v-2c0-0.6-0.4-1-1-1s-1,0.4-1,1v2h-7.2v-2c0-0.6-0.4-1-1-1s-1,0.4-1,1v2
	h-1.4V32.4z M41.2,39.3l-0.7,2C40.4,41.7,40,42,39.6,42H8.4c-0.4,0-0.8-0.3-0.9-0.7l-0.7-2C6.7,39,6.8,38.7,7,38.4
	C7.2,38.2,7.4,38,7.8,38H8h32h0.2c0.3,0,0.6,0.2,0.8,0.4C41.2,38.7,41.3,39,41.2,39.3z"/>
<path d="M34,4c-5.5,0-10,3.8-10,8.5c0,2.6,1.4,5.1,3.8,6.7L27,21.7c-0.1,0.4,0,0.8,0.3,1c0.2,0.2,0.4,0.2,0.7,0.2
	c0.1,0,0.3,0,0.4-0.1l4.3-2c0.4,0,0.9,0.1,1.2,0.1c5.5,0,10-3.8,10-8.5S39.5,4,34,4z M34,19c-0.4,0-0.8,0-1.3-0.1
	c-0.2,0-0.4,0-0.5,0.1l-2.6,1.2l0.3-1.2c0.1-0.4-0.1-0.9-0.5-1.2c-2.2-1.2-3.5-3.2-3.5-5.3C26,8.9,29.6,6,34,6s8,2.9,8,6.5
	S38.4,19,34,19z"/>
<path d="M36.5,9.7L33.3,13h-0.2l-1.6-1.6c-0.4-0.4-1-0.4-1.4,0s-0.4,1,0,1.4l2.4,2.4c0.2,0.2,0.5,0.3,0.7,0.3s0.5-0.1,0.7-0.3
	l0.5-0.5c0,0,0,0,0,0l3.6-3.6c0.4-0.4,0.4-1,0-1.4S36.9,9.3,36.5,9.7z"/>
</svg>
